<mxfile host="Electron" agent="Mozilla/5.0 (X11; Linux x86_64) AppleWebKit/537.36 (KHTML, like Gecko) draw.io/24.7.5 Chrome/126.0.6478.234 Electron/31.4.0 Safari/537.36" version="24.7.5" pages="2">
  <diagram id="tV4VOt1cq8B8wgrC6hZS" name="System">
    <mxGraphModel dx="1775" dy="1044" grid="1" gridSize="10" guides="1" tooltips="1" connect="1" arrows="1" fold="1" page="1" pageScale="1" pageWidth="1700" pageHeight="1100" math="0" shadow="0">
      <root>
        <mxCell id="0" />
        <mxCell id="1" parent="0" />
        <mxCell id="oXZH8-X807qckAqkcULx-2" value="MCU" style="rounded=0;whiteSpace=wrap;html=1;fontFamily=Times New Roman;glass=0;shadow=0;" vertex="1" parent="1">
          <mxGeometry x="740" y="210" width="196.85" height="196.85" as="geometry" />
        </mxCell>
        <mxCell id="oXZH8-X807qckAqkcULx-3" value="FPGA" style="rounded=0;whiteSpace=wrap;html=1;fontFamily=Times New Roman;glass=0;shadow=0;" vertex="1" parent="1">
          <mxGeometry x="740" y="489.99999999999994" width="196.85" height="196.85" as="geometry" />
        </mxCell>
        <mxCell id="oXZH8-X807qckAqkcULx-4" value="TRIGGERS&lt;div&gt;(IN/OUT)&lt;/div&gt;" style="rounded=0;whiteSpace=wrap;html=1;fontFamily=Times New Roman;glass=0;shadow=0;" vertex="1" parent="1">
          <mxGeometry x="520" y="550" width="118.11" height="118.11" as="geometry" />
        </mxCell>
        <mxCell id="oXZH8-X807qckAqkcULx-5" value="REFERENCE IN" style="rounded=0;whiteSpace=wrap;html=1;fontFamily=Times New Roman;glass=0;shadow=0;" vertex="1" parent="1">
          <mxGeometry x="380" y="700" width="118.11" height="39.37" as="geometry" />
        </mxCell>
        <mxCell id="oXZH8-X807qckAqkcULx-6" value="REFERENCE OUT" style="rounded=0;whiteSpace=wrap;html=1;fontFamily=Times New Roman;glass=0;shadow=0;" vertex="1" parent="1">
          <mxGeometry x="380" y="760" width="118.11" height="39.37" as="geometry" />
        </mxCell>
        <mxCell id="oXZH8-X807qckAqkcULx-7" value="CLOCKING" style="rounded=0;whiteSpace=wrap;html=1;fontFamily=Times New Roman;glass=0;shadow=0;" vertex="1" parent="1">
          <mxGeometry x="520" y="690" width="118.11" height="118.11" as="geometry" />
        </mxCell>
        <mxCell id="oXZH8-X807qckAqkcULx-8" value="DAC" style="rounded=0;whiteSpace=wrap;html=1;fontFamily=Times New Roman;glass=0;shadow=0;" vertex="1" parent="1">
          <mxGeometry x="1010" y="249.37" width="118.11" height="118.11" as="geometry" />
        </mxCell>
        <mxCell id="oXZH8-X807qckAqkcULx-14" value="" style="group" vertex="1" connectable="0" parent="1">
          <mxGeometry x="1010" y="529.37" width="118.1099999999999" height="118.11000000000001" as="geometry" />
        </mxCell>
        <mxCell id="oXZH8-X807qckAqkcULx-9" value="DAC" style="rounded=0;whiteSpace=wrap;html=1;fontFamily=Times New Roman;glass=0;shadow=0;" vertex="1" parent="oXZH8-X807qckAqkcULx-14">
          <mxGeometry width="118.11" height="118.11" as="geometry" />
        </mxCell>
        <mxCell id="oXZH8-X807qckAqkcULx-13" value="ENABLE" style="rounded=0;whiteSpace=wrap;html=1;fontFamily=Times New Roman;glass=0;shadow=0;fontSize=10;" vertex="1" parent="oXZH8-X807qckAqkcULx-14">
          <mxGeometry y="98.41999999999996" width="78.74" height="19.685" as="geometry" />
        </mxCell>
        <mxCell id="oXZH8-X807qckAqkcULx-15" value="" style="group" vertex="1" connectable="0" parent="1">
          <mxGeometry x="1010" y="250" width="118.1099999999999" height="118.11000000000001" as="geometry" />
        </mxCell>
        <mxCell id="oXZH8-X807qckAqkcULx-17" value="ENABLE" style="rounded=0;whiteSpace=wrap;html=1;fontFamily=Times New Roman;glass=0;shadow=0;fontSize=10;" vertex="1" parent="oXZH8-X807qckAqkcULx-15">
          <mxGeometry y="98.41999999999996" width="78.74" height="19.685" as="geometry" />
        </mxCell>
        <mxCell id="oXZH8-X807qckAqkcULx-18" value="SIGNAL CONDITIONING" style="rounded=0;whiteSpace=wrap;html=1;fontFamily=Times New Roman;glass=0;shadow=0;" vertex="1" parent="1">
          <mxGeometry x="1180" y="353" width="295.275" height="196.85" as="geometry" />
        </mxCell>
        <mxCell id="oXZH8-X807qckAqkcULx-19" value="CONNECTOR OUT" style="rounded=0;whiteSpace=wrap;html=1;fontFamily=Times New Roman;glass=0;shadow=0;" vertex="1" parent="1">
          <mxGeometry x="1520" y="392.37" width="118.11" height="118.11" as="geometry" />
        </mxCell>
        <mxCell id="oXZH8-X807qckAqkcULx-20" value="ANALOG OSCILLATORS&amp;nbsp;&lt;div&gt;+ FILTERS&lt;/div&gt;" style="rounded=0;whiteSpace=wrap;html=1;fontFamily=Times New Roman;glass=0;shadow=0;" vertex="1" parent="1">
          <mxGeometry x="740" y="799.3699999999999" width="196.85" height="196.85" as="geometry" />
        </mxCell>
      </root>
    </mxGraphModel>
  </diagram>
  <diagram name="Hardware Overview" id="fPEqJcC_m3jRkx2R7uuK">
    <mxGraphModel dx="1420" dy="835" grid="1" gridSize="10" guides="1" tooltips="1" connect="1" arrows="1" fold="1" page="1" pageScale="1" pageWidth="1700" pageHeight="1100" math="0" shadow="0">
      <root>
        <mxCell id="0" />
        <mxCell id="1" parent="0" />
        <mxCell id="9kSyRnHefQG-i18qjsVB-1" value="&lt;b&gt;BRZK-ARB-PCB-0001&lt;/b&gt;&lt;div&gt;PRINTED CIRCUIT BOARD&lt;/div&gt;" style="rounded=0;whiteSpace=wrap;html=1;align=left;verticalAlign=top;labelPosition=center;verticalLabelPosition=middle;spacing=2;spacingLeft=4;fontFamily=Times New Roman;" parent="1" vertex="1">
          <mxGeometry x="310" y="140" width="1130" height="450" as="geometry" />
        </mxCell>
        <mxCell id="9kSyRnHefQG-i18qjsVB-2" value="&lt;font&gt;&lt;font face=&quot;Times New Roman&quot;&gt;&lt;b style=&quot;&quot;&gt;MICROCONTROLLER&lt;br&gt;&lt;/b&gt;STM32XXXXXX&lt;/font&gt;&lt;br&gt;&lt;/font&gt;&lt;div&gt;&lt;font&gt;&lt;font face=&quot;Times New Roman&quot;&gt;(TBD)&lt;/font&gt;&lt;/font&gt;&lt;/div&gt;" style="rounded=0;whiteSpace=wrap;html=1;align=center;verticalAlign=middle;labelPosition=center;verticalLabelPosition=middle;spacing=2;spacingLeft=4;fontFamily=Verdana;" parent="1" vertex="1">
          <mxGeometry x="640" y="179" width="380" height="215" as="geometry" />
        </mxCell>
        <mxCell id="9kSyRnHefQG-i18qjsVB-3" value="&lt;font&gt;&lt;b&gt;POWER DISTRIBUTION&lt;/b&gt;&lt;br&gt;&lt;/font&gt;" style="rounded=0;whiteSpace=wrap;html=1;align=center;verticalAlign=middle;labelPosition=center;verticalLabelPosition=middle;spacing=2;spacingLeft=4;fontFamily=Times New Roman;" parent="1" vertex="1">
          <mxGeometry x="400" y="470" width="150" height="60" as="geometry" />
        </mxCell>
        <mxCell id="9kSyRnHefQG-i18qjsVB-4" value="&lt;font&gt;&lt;b&gt;JTAG CONNECTOR&lt;/b&gt;&lt;br&gt;&lt;/font&gt;" style="rounded=0;whiteSpace=wrap;html=1;align=center;verticalAlign=middle;labelPosition=center;verticalLabelPosition=middle;spacing=2;spacingLeft=4;fontFamily=Times New Roman;" parent="1" vertex="1">
          <mxGeometry x="310" y="220" width="90" height="60" as="geometry" />
        </mxCell>
        <mxCell id="9kSyRnHefQG-i18qjsVB-7" style="edgeStyle=orthogonalEdgeStyle;rounded=0;orthogonalLoop=1;jettySize=auto;html=1;exitX=1;exitY=0.5;exitDx=0;exitDy=0;entryX=0;entryY=0.5;entryDx=0;entryDy=0;fontFamily=Times New Roman;startArrow=classic;startFill=1;" parent="1" source="9kSyRnHefQG-i18qjsVB-5" target="9kSyRnHefQG-i18qjsVB-6" edge="1">
          <mxGeometry relative="1" as="geometry" />
        </mxCell>
        <mxCell id="9kSyRnHefQG-i18qjsVB-5" value="&lt;font&gt;&lt;b&gt;USB-C CONNECTOR&lt;/b&gt;&lt;br&gt;&lt;/font&gt;" style="rounded=0;whiteSpace=wrap;html=1;align=center;verticalAlign=middle;labelPosition=center;verticalLabelPosition=middle;spacing=2;spacingLeft=4;fontFamily=Times New Roman;" parent="1" vertex="1">
          <mxGeometry x="310" y="310" width="90" height="60" as="geometry" />
        </mxCell>
        <mxCell id="9kSyRnHefQG-i18qjsVB-8" style="edgeStyle=orthogonalEdgeStyle;rounded=0;orthogonalLoop=1;jettySize=auto;html=1;exitX=1;exitY=0.5;exitDx=0;exitDy=0;entryX=0;entryY=0.75;entryDx=0;entryDy=0;fontFamily=Times New Roman;startArrow=classic;startFill=1;" parent="1" edge="1">
          <mxGeometry relative="1" as="geometry">
            <mxPoint x="530" y="360" as="sourcePoint" />
            <mxPoint x="640" y="360.25" as="targetPoint" />
          </mxGeometry>
        </mxCell>
        <mxCell id="9kSyRnHefQG-i18qjsVB-6" value="&lt;font&gt;&lt;b&gt;FTDI&lt;br&gt;&lt;/b&gt;UART + JTAG&lt;br&gt;&lt;/font&gt;" style="rounded=0;whiteSpace=wrap;html=1;align=center;verticalAlign=middle;labelPosition=center;verticalLabelPosition=middle;spacing=2;spacingLeft=4;fontFamily=Times New Roman;" parent="1" vertex="1">
          <mxGeometry x="440" y="310" width="90" height="60" as="geometry" />
        </mxCell>
        <mxCell id="9kSyRnHefQG-i18qjsVB-9" style="edgeStyle=orthogonalEdgeStyle;rounded=0;orthogonalLoop=1;jettySize=auto;html=1;exitX=1;exitY=0.75;exitDx=0;exitDy=0;fontFamily=Times New Roman;" parent="1" source="9kSyRnHefQG-i18qjsVB-5" edge="1">
          <mxGeometry relative="1" as="geometry">
            <mxPoint x="422" y="464" as="targetPoint" />
          </mxGeometry>
        </mxCell>
        <mxCell id="9kSyRnHefQG-i18qjsVB-10" value="5V IN" style="text;strokeColor=none;align=center;fillColor=none;html=1;verticalAlign=middle;whiteSpace=wrap;rounded=0;fontFamily=Times New Roman;" parent="1" vertex="1">
          <mxGeometry x="360" y="400" width="60" height="30" as="geometry" />
        </mxCell>
        <mxCell id="9kSyRnHefQG-i18qjsVB-11" style="edgeStyle=orthogonalEdgeStyle;rounded=0;orthogonalLoop=1;jettySize=auto;html=1;exitX=1;exitY=0.5;exitDx=0;exitDy=0;entryX=0;entryY=0.75;entryDx=0;entryDy=0;fontFamily=Times New Roman;startArrow=classic;startFill=1;" parent="1" edge="1">
          <mxGeometry relative="1" as="geometry">
            <mxPoint x="530" y="320" as="sourcePoint" />
            <mxPoint x="640" y="320.25" as="targetPoint" />
          </mxGeometry>
        </mxCell>
        <mxCell id="9kSyRnHefQG-i18qjsVB-12" value="UART" style="text;strokeColor=none;align=center;fillColor=none;html=1;verticalAlign=middle;whiteSpace=wrap;rounded=0;fontFamily=Times New Roman;" parent="1" vertex="1">
          <mxGeometry x="530" y="350" width="110" height="10" as="geometry" />
        </mxCell>
        <mxCell id="9kSyRnHefQG-i18qjsVB-13" value="JTAG" style="text;strokeColor=none;align=center;fillColor=none;html=1;verticalAlign=middle;whiteSpace=wrap;rounded=0;fontFamily=Times New Roman;" parent="1" vertex="1">
          <mxGeometry x="530" y="310" width="110" height="10" as="geometry" />
        </mxCell>
        <mxCell id="9kSyRnHefQG-i18qjsVB-14" value="JTAG" style="text;strokeColor=none;align=center;fillColor=none;html=1;verticalAlign=middle;whiteSpace=wrap;rounded=0;fontFamily=Times New Roman;" parent="1" vertex="1">
          <mxGeometry x="530" y="240" width="110" height="10" as="geometry" />
        </mxCell>
        <mxCell id="9kSyRnHefQG-i18qjsVB-15" style="edgeStyle=orthogonalEdgeStyle;rounded=0;orthogonalLoop=1;jettySize=auto;html=1;exitX=1;exitY=0.5;exitDx=0;exitDy=0;entryX=0.001;entryY=0.329;entryDx=0;entryDy=0;entryPerimeter=0;startArrow=classic;startFill=1;" parent="1" source="9kSyRnHefQG-i18qjsVB-4" target="9kSyRnHefQG-i18qjsVB-2" edge="1">
          <mxGeometry relative="1" as="geometry" />
        </mxCell>
        <mxCell id="9kSyRnHefQG-i18qjsVB-18" value="&lt;font style=&quot;font-size: 12px;&quot;&gt;&lt;span style=&quot;font-size: 12px;&quot;&gt;JTAG0&lt;/span&gt;&lt;br style=&quot;font-size: 12px;&quot;&gt;&lt;/font&gt;" style="rounded=0;whiteSpace=wrap;html=1;align=center;verticalAlign=middle;labelPosition=center;verticalLabelPosition=middle;spacing=2;spacingLeft=4;fontFamily=Times New Roman;fontStyle=0;fontSize=12;" parent="1" vertex="1">
          <mxGeometry x="640" y="239.5" width="50" height="21" as="geometry" />
        </mxCell>
        <mxCell id="9kSyRnHefQG-i18qjsVB-20" value="&lt;font style=&quot;font-size: 12px;&quot;&gt;&lt;span style=&quot;font-size: 12px;&quot;&gt;JTAG1&lt;/span&gt;&lt;br style=&quot;font-size: 12px;&quot;&gt;&lt;/font&gt;" style="rounded=0;whiteSpace=wrap;html=1;align=center;verticalAlign=middle;labelPosition=center;verticalLabelPosition=middle;spacing=2;spacingLeft=4;fontFamily=Times New Roman;fontStyle=0;fontSize=12;" parent="1" vertex="1">
          <mxGeometry x="640" y="310" width="50" height="21" as="geometry" />
        </mxCell>
        <mxCell id="9kSyRnHefQG-i18qjsVB-21" value="UART0" style="rounded=0;whiteSpace=wrap;html=1;align=center;verticalAlign=middle;labelPosition=center;verticalLabelPosition=middle;spacing=2;spacingLeft=4;fontFamily=Times New Roman;fontStyle=0;fontSize=12;" parent="1" vertex="1">
          <mxGeometry x="640" y="349" width="50" height="21" as="geometry" />
        </mxCell>
        <mxCell id="UDzzE00kZY2WieV9OO5L-27" value="MAY NOT HAVE JTAG" style="text;strokeColor=none;align=center;fillColor=none;html=1;verticalAlign=middle;whiteSpace=wrap;rounded=0;fontFamily=Times New Roman;fontSize=8;fontColor=#FF3333;" parent="1" vertex="1">
          <mxGeometry x="530" y="302.5" width="110" height="7.5" as="geometry" />
        </mxCell>
        <mxCell id="UDzzE00kZY2WieV9OO5L-30" value="GPIO" style="rounded=0;whiteSpace=wrap;html=1;align=center;verticalAlign=middle;labelPosition=center;verticalLabelPosition=middle;spacing=2;spacingLeft=4;fontFamily=Times New Roman;fontStyle=0;fontSize=12;" parent="1" vertex="1">
          <mxGeometry x="750" y="373" width="70" height="21" as="geometry" />
        </mxCell>
        <mxCell id="UDzzE00kZY2WieV9OO5L-31" value="&lt;b&gt;LEDs&lt;/b&gt;&lt;br&gt;&lt;div&gt;&lt;font&gt;STATUS &amp;amp; DEBUG&lt;/font&gt;&lt;/div&gt;" style="rounded=0;whiteSpace=wrap;html=1;align=center;verticalAlign=middle;labelPosition=center;verticalLabelPosition=middle;spacing=2;spacingLeft=4;fontFamily=Times New Roman;" parent="1" vertex="1">
          <mxGeometry x="720" y="470" width="130" height="60" as="geometry" />
        </mxCell>
        <mxCell id="UDzzE00kZY2WieV9OO5L-32" value="" style="endArrow=classic;startArrow=classic;html=1;rounded=0;fontFamily=Times New Roman;fontSize=12;fontColor=default;exitX=0.5;exitY=-0.06;exitDx=0;exitDy=0;exitPerimeter=0;entryX=0.5;entryY=1;entryDx=0;entryDy=0;" parent="1" source="UDzzE00kZY2WieV9OO5L-31" target="UDzzE00kZY2WieV9OO5L-30" edge="1">
          <mxGeometry width="50" height="50" relative="1" as="geometry">
            <mxPoint x="730" y="444" as="sourcePoint" />
            <mxPoint x="780" y="394" as="targetPoint" />
          </mxGeometry>
        </mxCell>
        <mxCell id="UDzzE00kZY2WieV9OO5L-40" style="edgeStyle=orthogonalEdgeStyle;rounded=0;orthogonalLoop=1;jettySize=auto;html=1;exitX=0;exitY=0.5;exitDx=0;exitDy=0;entryX=1;entryY=0.5;entryDx=0;entryDy=0;fontFamily=Times New Roman;fontSize=12;fontColor=default;" parent="1" source="UDzzE00kZY2WieV9OO5L-35" target="UDzzE00kZY2WieV9OO5L-33" edge="1">
          <mxGeometry relative="1" as="geometry" />
        </mxCell>
        <mxCell id="UDzzE00kZY2WieV9OO5L-33" value="&lt;font style=&quot;font-size: 12px;&quot;&gt;ADC&lt;/font&gt;" style="rounded=0;whiteSpace=wrap;html=1;align=center;verticalAlign=middle;labelPosition=center;verticalLabelPosition=middle;spacing=2;spacingLeft=4;fontFamily=Times New Roman;fontStyle=0;fontSize=12;" parent="1" vertex="1">
          <mxGeometry x="970" y="239.5" width="50" height="21" as="geometry" />
        </mxCell>
        <mxCell id="UDzzE00kZY2WieV9OO5L-34" value="&lt;font style=&quot;font-size: 12px;&quot;&gt;&lt;span style=&quot;font-size: 12px;&quot;&gt;DAC&lt;/span&gt;&lt;br style=&quot;font-size: 12px;&quot;&gt;&lt;/font&gt;" style="rounded=0;whiteSpace=wrap;html=1;align=center;verticalAlign=middle;labelPosition=center;verticalLabelPosition=middle;spacing=2;spacingLeft=4;fontFamily=Times New Roman;fontStyle=0;fontSize=12;" parent="1" vertex="1">
          <mxGeometry x="970" y="328" width="50" height="21" as="geometry" />
        </mxCell>
        <mxCell id="UDzzE00kZY2WieV9OO5L-35" value="&lt;b&gt;ADC FILTERING&lt;/b&gt;" style="rounded=0;whiteSpace=wrap;html=1;align=center;verticalAlign=middle;labelPosition=center;verticalLabelPosition=middle;spacing=2;spacingLeft=4;fontFamily=Times New Roman;" parent="1" vertex="1">
          <mxGeometry x="1120" y="220" width="130" height="60" as="geometry" />
        </mxCell>
        <mxCell id="UDzzE00kZY2WieV9OO5L-44" style="edgeStyle=orthogonalEdgeStyle;rounded=0;orthogonalLoop=1;jettySize=auto;html=1;exitX=1;exitY=0.5;exitDx=0;exitDy=0;entryX=0;entryY=0.5;entryDx=0;entryDy=0;fontFamily=Times New Roman;fontSize=12;fontColor=default;" parent="1" source="UDzzE00kZY2WieV9OO5L-34" target="UDzzE00kZY2WieV9OO5L-36" edge="1">
          <mxGeometry relative="1" as="geometry" />
        </mxCell>
        <mxCell id="UDzzE00kZY2WieV9OO5L-36" value="&lt;b&gt;DAC FILTERING&lt;/b&gt;" style="rounded=0;whiteSpace=wrap;html=1;align=center;verticalAlign=middle;labelPosition=center;verticalLabelPosition=middle;spacing=2;spacingLeft=4;fontFamily=Times New Roman;" parent="1" vertex="1">
          <mxGeometry x="1120" y="308.5" width="130" height="60" as="geometry" />
        </mxCell>
        <mxCell id="UDzzE00kZY2WieV9OO5L-37" value="&lt;font&gt;&lt;b&gt;BNC CONNECTOR&lt;/b&gt;&lt;br&gt;&lt;/font&gt;" style="rounded=0;whiteSpace=wrap;html=1;align=center;verticalAlign=middle;labelPosition=center;verticalLabelPosition=middle;spacing=2;spacingLeft=4;fontFamily=Times New Roman;" parent="1" vertex="1">
          <mxGeometry x="1350" y="220" width="90" height="60" as="geometry" />
        </mxCell>
        <mxCell id="UDzzE00kZY2WieV9OO5L-43" style="edgeStyle=orthogonalEdgeStyle;rounded=0;orthogonalLoop=1;jettySize=auto;html=1;exitX=1;exitY=0.5;exitDx=0;exitDy=0;entryX=0;entryY=0.5;entryDx=0;entryDy=0;fontFamily=Times New Roman;fontSize=12;fontColor=default;" parent="1" source="UDzzE00kZY2WieV9OO5L-36" target="UDzzE00kZY2WieV9OO5L-38" edge="1">
          <mxGeometry relative="1" as="geometry" />
        </mxCell>
        <mxCell id="UDzzE00kZY2WieV9OO5L-38" value="&lt;font&gt;&lt;b&gt;BNC CONNECTOR&lt;/b&gt;&lt;br&gt;&lt;/font&gt;" style="rounded=0;whiteSpace=wrap;html=1;align=center;verticalAlign=middle;labelPosition=center;verticalLabelPosition=middle;spacing=2;spacingLeft=4;fontFamily=Times New Roman;" parent="1" vertex="1">
          <mxGeometry x="1350" y="308.5" width="90" height="60" as="geometry" />
        </mxCell>
        <mxCell id="UDzzE00kZY2WieV9OO5L-41" style="edgeStyle=orthogonalEdgeStyle;rounded=0;orthogonalLoop=1;jettySize=auto;html=1;exitX=0;exitY=0.5;exitDx=0;exitDy=0;entryX=0;entryY=0.5;entryDx=0;entryDy=0;fontFamily=Times New Roman;fontSize=12;fontColor=default;" parent="1" source="UDzzE00kZY2WieV9OO5L-37" edge="1">
          <mxGeometry relative="1" as="geometry">
            <mxPoint x="1290" y="249.31" as="sourcePoint" />
            <mxPoint x="1220" y="249.31" as="targetPoint" />
          </mxGeometry>
        </mxCell>
        <mxCell id="UDzzE00kZY2WieV9OO5L-46" value="FILTERING MAY NOT BEE REQURED" style="text;strokeColor=none;align=center;fillColor=none;html=1;verticalAlign=middle;whiteSpace=wrap;rounded=0;fontFamily=Times New Roman;fontSize=8;fontColor=#FF3333;" parent="1" vertex="1">
          <mxGeometry x="1115" y="204" width="140" height="7.5" as="geometry" />
        </mxCell>
      </root>
    </mxGraphModel>
  </diagram>
</mxfile>
